<svg width="510" height="190" viewBox="0 0 510 190" fill="none" xmlns="http://www.w3.org/2000/svg">
<path d="M0 19.4322C0 0 0 0 21.4629 0H487.515C510 0 510 0 510 19.9436V158.015C510 169.469 501.824 175.913 493.647 177.447L471.673 179.492L445.611 182.049L405.751 186.14C398.597 186.822 380.405 188.493 364.87 189.72C349.335 190.947 328.417 187.845 319.9 186.14C308.487 183.243 282.697 176.526 270.842 172.845C258.168 169.981 245.461 171.651 240.691 172.845L184.479 187.163C173.85 188.799 156.373 190.743 138.487 189.209L33.2164 179.492C16.8637 177.958 0 175.913 0 158.015V19.4322Z" fill="black"/>
</svg>
