<svg width="510" height="190" viewBox="0 0 510 190" fill="none" xmlns="http://www.w3.org/2000/svg">
<path d="M510 170.568C510 190 510 190 488.537 190L22.485 190C0 190 0 190 -1.74353e-06 170.056L-1.38141e-05 31.9853C-1.48155e-05 20.5305 8.17635 14.0872 16.3527 12.5531L38.3266 10.5076L64.3888 7.95068L104.248 3.85969C111.403 3.17785 129.595 1.50736 145.13 0.280061C160.665 -0.947235 181.583 2.15509 190.1 3.85968C201.513 6.75746 227.303 13.4735 239.158 17.1554C251.832 20.0191 264.539 18.3486 269.309 17.1554L325.521 2.83691C336.15 1.20052 353.627 -0.742708 371.513 0.791409L476.784 10.5075C493.136 12.0416 510 14.0871 510 31.9852L510 170.568Z" fill="black"/>
</svg>
