<svg width="389" height="187" viewBox="0 0 389 187" fill="none" xmlns="http://www.w3.org/2000/svg">
<path d="M374.241 0H13.7046C5.271 0 0 6.85243 0 12.6506V165.512C0 170.573 4.2168 176.055 12.6504 177.636L101.73 186.07C111.429 186.913 129.667 188.39 146.196 183.961C148.456 183.356 177.633 173.419 185.539 173.419H203.988C208.626 173.419 232.627 180.447 244.047 183.961C252.059 185.648 267.767 187.651 277.782 186.597L376.35 177.109C383.518 175.844 389 169.729 389 164.458V13.7049C389 5.2711 382.148 0 374.241 0Z" fill="black"/>
</svg>
