<svg width="389" height="187" viewBox="0 0 389 187" fill="none" xmlns="http://www.w3.org/2000/svg">
<path d="M14.7588 187L375.295 187C383.729 187 389 180.148 389 174.349L389 21.4875C389 16.4272 384.783 10.9453 376.35 9.36398L287.27 0.93023C277.571 0.0868475 259.333 -1.39043 242.804 3.03868C240.544 3.64419 211.367 13.5809 203.461 13.5809L185.012 13.5809C180.374 13.5809 156.373 6.55274 144.953 3.03869C136.941 1.35194 121.233 -0.651084 111.218 0.403131L12.6504 9.89112C5.48183 11.1562 -1.48382e-05 17.2707 -1.43774e-05 22.5418L-1.19812e-06 173.295C-4.60814e-07 181.729 6.85229 187 14.7588 187Z" fill="black"/>
</svg>
