<svg width="101" height="62" viewBox="0 0 101 62" fill="none" xmlns="http://www.w3.org/2000/svg">
<path d="M0.844069 20.0086L12.3441 12.5086C14.7441 11.7086 15.3441 14.0012 14.3441 15.5086C10.0362 22.002 7.34405 45.5086 19.3441 57.5086C20.9441 59.5086 18.8441 62.5086 17.3441 61.5086C11.3441 57.5086 3.34405 43.0086 7.34405 21.0086C6.34405 21.502 5.84405 22.002 2.34407 24.0086C-0.656006 24.002 -0.322597 20.8419 0.844069 20.0086Z" fill="black"/>
<path d="M99.5661 41.6415L88.6766 50.0032C86.3452 50.9853 85.5708 48.7456 86.452 47.1658C90.2479 40.3605 91.1254 16.7165 78.2385 5.67437C76.4895 3.80327 78.3527 0.65073 79.9251 1.53248C86.2148 5.05947 95.3057 18.9017 93.0085 41.144C93.9676 40.5753 94.4277 40.0383 97.7631 37.7686C100.755 37.5446 100.665 40.7209 99.5661 41.6415Z" fill="black"/>
</svg>
