<?xml version="1.0" encoding="UTF-8"?>
<!DOCTYPE svg PUBLIC "-//W3C//DTD SVG 1.0//EN" "http://www.w3.org/TR/2001/REC-SVG-20010904/DTD/svg10.dtd">
<!-- Creator: CorelDRAW X6 -->
<svg xmlns="http://www.w3.org/2000/svg" xml:space="preserve" width="255mm" height="70.0851mm" version="1.0" style="shape-rendering:geometricPrecision; text-rendering:geometricPrecision; image-rendering:optimizeQuality; fill-rule:evenodd; clip-rule:evenodd"
viewBox="0 0 28352 7792"
 xmlns:xlink="http://www.w3.org/1999/xlink">
 <defs>
  <style type="text/css">
   <![CDATA[
    .fil1 {fill:#9DB8CD}
    .fil0 {fill:#F89C1C}
    .fil2 {fill:white;fill-opacity:0.301961}
   ]]>
  </style>
 </defs>
 <g id="Слой_x0020_1">
  <metadata id="CorelCorpID_0Corel-Layer"/>
  <g id="XMLID_18_">
   <g id="XMLID_44_">
    <path id="XMLID_46_" class="fil0" d="M3393 3467c158,0 337,-40 476,-119 119,-79 198,-179 198,-357 0,-159 -119,-318 -297,-357 -199,-60 -318,-60 -457,-60 -139,0 -297,20 -297,20l0 893c0,-20 218,-20 377,-20z"/>
    <path id="XMLID_47_" class="fil0" d="M4047 4023c-79,-40 -277,-100 -496,-119 -218,-20 -515,0 -515,0l0 992c0,0 297,0 515,0 199,-20 417,-60 516,-120 99,-59 238,-138 238,-377 -19,-238 -178,-317 -258,-376z"/>
    <path id="XMLID_54_" class="fil0" d="M6746 491c-2203,-655 -4544,-655 -6746,0l0 3532 0 238c0,1488 1290,2837 3373,3531l0 0c2083,-694 3373,-2063 3373,-3531l0 -238 0 -3532 0 0zm-1925 4662c-278,199 -575,219 -694,239 -60,0 -179,19 -298,19l0 754 -456 0 0 -734c-79,0 -218,0 -357,0l0 734 -457 0 0 -734c-456,0 -892,0 -892,0l99 -555c0,0 178,0 278,0 99,0 138,0 178,-40 40,-40 40,-99 40,-139 0,-40 0,-1785 0,-1904 0,-120 0,-159 -60,-219 -59,-59 -178,-59 -258,-59 -79,0 -277,0 -277,0l0 -476c0,0 436,0 892,0l0 -734 457 -1 0 735c119,0 238,0 357,0l0 -735 456 0 0 754c337,20 595,80 814,258 277,219 277,576 258,675 0,79 -40,258 -119,357 -80,119 -258,218 -258,218 0,0 218,40 377,159 158,119 277,317 257,635 0,317 -59,615 -337,793z"/>
   </g>
   <g id="XMLID_97_">
    <path id="XMLID_105_" class="fil0" d="M8948 3070c139,0 258,20 357,80 99,59 179,119 258,198 60,79 119,179 159,298 39,119 39,238 39,377 0,198 -39,396 -119,575 -79,179 -178,337 -297,476 -139,139 -278,238 -457,318 -178,79 -357,119 -575,119 -20,0 -79,0 -139,0 -59,0 -139,0 -218,-20 -79,-20 -179,-20 -278,-60 -99,-20 -178,-59 -278,-99l754 -3194 675 -99 -278 1130c60,-19 119,-39 179,-59 99,-20 158,-40 218,-40zm-556 1885c100,0 199,-20 298,-79 99,-60 179,-119 238,-199 60,-79 119,-178 159,-277 40,-100 59,-219 59,-338 0,-139 -19,-258 -79,-337 -40,-79 -139,-119 -258,-119 -40,0 -99,0 -159,20 -59,20 -119,39 -178,99l-298 1210c20,0 40,0 40,0 20,0 20,0 40,0 19,0 39,0 59,0 20,0 40,20 79,20z"/>
    <path id="XMLID_102_" class="fil0" d="M10515 5431l-654 0 555 -2321 655 0 -556 2321zm318 -2599c-99,0 -179,-20 -238,-79 -80,-60 -119,-139 -119,-258 0,-60 20,-119 39,-179 20,-59 60,-99 100,-139 39,-39 79,-79 138,-99 60,-20 120,-39 179,-39 99,0 179,19 238,79 79,59 119,139 119,258 0,59 -20,119 -40,178 -19,60 -59,100 -99,139 -39,40 -79,80 -139,99 -59,40 -99,40 -178,40z"/>
    <path id="XMLID_100_" class="fil0" d="M11706 2554l674 -99 -158 675 734 0 -139 536 -714 -1 -199 814c-20,59 -20,139 -40,198 -19,60 0,119 20,159 20,40 60,79 100,99 39,20 119,40 198,40 79,0 139,0 198,-20 60,-20 139,-40 199,-59l39 496c-79,39 -178,59 -277,79 -99,20 -219,40 -357,40 -199,0 -358,-40 -477,-100 -119,-59 -198,-138 -238,-238 -39,-99 -59,-218 -59,-357 0,-139 20,-278 59,-416l437 -1846z"/>
    <path id="XMLID_98_" class="fil0" d="M13789 4975c159,0 258,-20 317,-60 60,-39 80,-79 80,-138 0,-40 0,-60 -20,-80 -20,-20 -20,-39 -60,-59 -19,-20 -59,-40 -99,-60 -39,-20 -99,-39 -158,-79 -80,-40 -139,-60 -199,-99 -59,-40 -119,-80 -178,-139 -40,-60 -80,-119 -120,-179 -19,-59 -39,-139 -39,-238 0,-238 79,-416 258,-555 178,-139 436,-199 754,-199 158,0 297,20 416,60 119,39 218,79 298,119l-218 496c-60,-40 -139,-60 -238,-99 -100,-20 -199,-40 -278,-40 -40,0 -80,0 -119,0 -40,0 -80,20 -119,20 -40,20 -60,39 -80,59 -20,20 -39,60 -39,99 0,60 19,100 59,139 40,20 119,60 198,100 120,59 219,99 278,158 80,40 139,99 179,159 40,59 79,119 99,179 20,59 40,138 40,238 0,99 -20,178 -60,277 -39,100 -99,179 -178,238 -80,80 -199,120 -318,179 -139,40 -297,60 -476,60 -119,0 -218,0 -317,-20 -100,-20 -179,-40 -238,-60 -80,-20 -139,-40 -179,-59 -40,-20 -79,-40 -119,-60l218 -496c60,20 119,60 238,119 139,0 278,20 417,20z"/>
   </g>
   <g id="XMLID_82_">
    <path id="XMLID_95_" class="fil1" d="M16785 3229c59,-20 99,-40 159,-60 59,-19 119,-39 198,-59 79,-20 159,-20 238,-40 99,-20 199,-20 318,-20 138,0 258,20 357,60 99,40 178,79 258,159 99,-60 218,-119 317,-159 99,-40 238,-60 377,-60 139,0 258,20 357,60 99,40 179,99 238,159 60,59 119,158 139,238 20,99 40,198 40,317 0,60 0,99 -20,159 0,59 -20,119 -40,178l-297 1250 -655 0 298 -1230c0,-39 19,-79 19,-139 20,-59 20,-99 20,-158 0,-80 -20,-159 -59,-218 -40,-60 -119,-100 -218,-100 -60,0 -120,20 -179,40 -60,20 -99,40 -159,60 0,19 0,39 0,59 0,20 0,40 0,60 0,59 0,99 -20,158 -19,60 -19,119 -39,179l-298 1250 -655 0 298 -1230c0,-40 20,-80 20,-139 20,-60 20,-99 20,-159 0,-79 -20,-159 -60,-218 -40,-60 -119,-99 -218,-99 -40,0 -79,0 -119,0 -40,0 -80,20 -119,20l-417 1785 -655 0 556 -2103z"/>
    <path id="XMLID_92_" class="fil1" d="M20019 4538c0,-178 40,-377 99,-535 60,-179 159,-338 278,-476 119,-139 258,-238 436,-338 179,-79 358,-119 576,-119 99,0 198,20 278,40 79,20 158,79 238,119 59,60 119,119 158,198 40,80 60,179 60,278 0,159 -40,298 -119,417 -80,119 -179,198 -298,278 -139,79 -278,119 -456,158 -179,40 -377,40 -576,40 20,119 60,218 139,258 60,60 179,79 338,79 99,0 198,0 277,-19 100,-20 179,-40 278,-80l40 516c-79,40 -179,60 -318,79 -119,20 -257,40 -416,40 -179,0 -337,-20 -457,-79 -119,-60 -218,-119 -297,-218 -80,-80 -139,-199 -179,-318 -59,-60 -79,-199 -79,-318zm1290 -952c-159,0 -278,60 -397,159 -119,99 -179,258 -218,416 178,0 337,-19 436,-39 119,-20 198,-60 258,-99 59,-40 99,-80 119,-120 20,-39 40,-79 40,-119 0,-138 -80,-198 -238,-198z"/>
    <path id="XMLID_89_" class="fil1" d="M23074 5491c-139,0 -278,-20 -377,-80 -99,-59 -198,-119 -258,-198 -59,-79 -119,-179 -139,-298 -39,-119 -39,-238 -39,-377 0,-198 39,-396 99,-555 79,-179 179,-337 298,-456 119,-139 277,-239 456,-318 178,-79 357,-119 575,-119 60,0 99,0 139,0 40,0 99,20 139,20l238 -992 675 -99 -576 2420c-39,159 -59,337 -39,496 19,159 59,318 99,457l-576 79c-19,-40 -39,-60 -39,-99 -20,-40 -20,-60 -40,-119 -79,59 -179,119 -278,158 -119,60 -218,80 -357,80zm774 -1845c-20,0 -40,0 -40,0 -20,0 -20,0 -39,0 -20,0 -40,0 -60,0 -20,0 -40,0 -79,0 -99,0 -199,19 -278,79 -79,40 -159,119 -218,198 -60,80 -119,179 -139,278 -40,99 -60,218 -60,318 0,138 20,258 80,337 39,79 139,119 258,119 59,0 119,-20 178,-40 60,-20 119,-79 179,-139 0,-79 20,-158 20,-238 20,-79 20,-158 39,-218l159 -694z"/>
    <path id="XMLID_86_" class="fil1" d="M25336 5431l-655 0 556 -2321 655 0 -556 2321zm318 -2599c-100,0 -179,-20 -239,-79 -79,-60 -119,-139 -119,-258 0,-60 20,-119 40,-179 20,-59 60,-99 99,-139 40,-39 80,-79 139,-99 60,-20 119,-39 179,-39 99,0 178,19 238,79 79,59 119,139 119,258 0,59 -20,119 -40,178 -20,60 -59,100 -99,139 -40,40 -79,80 -139,99 -59,40 -119,40 -178,40z"/>
    <path id="XMLID_83_" class="fil1" d="M28054 4439c-40,159 -59,338 -40,496 20,159 60,318 100,457l-576 79c-20,-40 -39,-60 -39,-99 -20,-40 -20,-60 -40,-119 -79,59 -179,119 -278,158 -99,40 -218,60 -337,60 -139,0 -278,-20 -377,-79 -99,-60 -199,-120 -258,-199 -60,-79 -119,-178 -139,-297 -20,-120 -40,-239 -40,-377 0,-199 40,-397 100,-576 79,-178 178,-337 297,-476 119,-139 278,-238 456,-317 179,-80 358,-119 556,-119 20,0 79,0 139,0 59,0 139,0 218,19 79,20 179,20 278,60 99,20 178,59 278,99l-298 1230zm-456 -813c-40,0 -79,-20 -99,-20 -40,0 -60,0 -119,0 -100,0 -199,20 -278,79 -80,60 -159,119 -218,199 -60,79 -119,178 -159,278 -40,99 -60,218 -60,337 0,139 20,258 80,337 59,79 139,119 258,119 59,0 119,-20 178,-40 60,-19 119,-79 179,-138 0,-80 20,-159 20,-238 20,-80 20,-159 39,-219l179 -694z"/>
   </g>
   <path id="XMLID_23_" class="fil2" d="M3194 15c338,40 3512,595 3512,4583 20,-99 20,-218 20,-317l0 -239 0 -3531c-1131,-357 -2341,-516 -3532,-496z"/>
   <path id="XMLID_22_" class="fil1" d="M15535 5431c-99,0 -179,-20 -238,-79 -79,-60 -119,-139 -119,-258 0,-60 20,-119 40,-179 19,-59 59,-99 99,-138 39,-40 79,-80 139,-100 59,-20 119,-39 178,-39 99,0 179,19 238,79 80,59 119,139 119,258 0,59 -20,119 -39,178 -20,60 -60,100 -100,139 -39,40 -79,80 -138,100 -60,39 -119,39 -179,39z"/>
  </g>
 </g>
</svg>
