<svg xmlns="http://www.w3.org/2000/svg" width="153" height="40" fill="none" viewBox="0 0 153 40" style="width: 153px; height: 40px;"><path fill="#16192E" d="M.88 7.811a.82.82 0 01.19-.58.725.725 0 01.563-.223h17.036a.782.782 0 01.592.223c.14.17.211.388.202.61v4.306a.975.975 0 01-.202.571.737.737 0 01-.591.281H7.526v4.326h8.594a.893.893 0 01.545.155.6.6 0 01.209.523v3.707a.7.7 0 01-.432.643.688.688 0 01-.303.053H7.544v4.464H19.1a.68.68 0 01.748.474.693.693 0 01.025.319v4.375a.451.451 0 01-.142.32c0 .319-.277.483-.697.483h-17.4a.785.785 0 01-.553-.184.708.708 0 01-.2-.561V7.81zM21.59 32.423l.277-.532c.096-.173.212-.358.335-.541l7.735-11.712-3.906-5.961-3.916-5.953a2.22 2.22 0 01-.161-.261.902.902 0 01-.077-.272c0-.096.086-.135.2-.135a.624.624 0 00.335-.078h5.978c.213.001.421.065.599.183.179.12.318.287.404.485l4.21 6.408 4.26-6.397a1.09 1.09 0 01.954-.668h6.073c.098.008.194.027.287.057a.18.18 0 01.114.165.692.692 0 01-.19.446l-7.859 11.981 8.069 12.195c.1.14.187.289.258.445.06.103.09.22.086.34 0 .173-.106.26-.315.26h-6.15a.89.89 0 01-.535-.174 1.178 1.178 0 01-.381-.474l-4.67-7.017-4.622 7.017a1.176 1.176 0 01-.383.474.884.884 0 01-.534.174h-6.169a.388.388 0 01-.239-.077.265.265 0 01-.105-.223.284.284 0 01.038-.155zm27.55-24.65a.8.8 0 01.19-.542.716.716 0 01.565-.223h5.624c.173.003.343.046.496.126.187.092.343.236.449.417 1.452 2.38 2.894 4.726 4.326 7.035l4.355 7.037V7.666a.794.794 0 01.315-.474.71.71 0 01.478-.174h4.898a.945.945 0 01.602.203.675.675 0 01.239.562v24.419a.598.598 0 01-.211.513.89.89 0 01-.563.164h-5.519a.568.568 0 01-.4-.155 2.707 2.707 0 01-.354-.416l-4.527-7.578c-1.508-2.529-3.02-5.055-4.535-7.579v14.964a.831.831 0 01-.172.57.826.826 0 01-.62.194h-4.88a.66.66 0 01-.573-.222.76.76 0 01-.182-.523V7.774zm79.517 12.194a13.199 13.199 0 01-.468 3.513 12.365 12.365 0 01-1.328 3.069 12.908 12.908 0 01-4.698 4.597 13.545 13.545 0 01-6.627 1.704h-8.47a1.134 1.134 0 01-.554-.136c-.162-.096-.239-.29-.239-.6V7.811a.852.852 0 01.249-.62.72.72 0 01.592-.232h8.47c1.177-.002 2.348.15 3.486.455a13.126 13.126 0 015.777 3.29 12.584 12.584 0 012.053 2.614 12.997 12.997 0 011.327 3.117c.306 1.151.451 2.34.43 3.532zm-15.727-6.726v13.404h2.215l.754-.057a6.924 6.924 0 002.407-.64 6.796 6.796 0 001.91-1.393 6.344 6.344 0 001.308-2.032 6.72 6.72 0 00.478-2.546 6.59 6.59 0 00-4.193-6.204 6.933 6.933 0 00-2.655-.503l-2.224-.03zm20.215-5.43a.825.825 0 01.191-.58.728.728 0 01.563-.223h17.046a.739.739 0 01.583.223.86.86 0 01.21.61v4.307a.9.9 0 01-.21.57.706.706 0 01-.602.262h-11.134v4.326h8.594a.893.893 0 01.544.155.601.601 0 01.211.523v3.726a.668.668 0 01-.191.465.648.648 0 01-.545.232h-8.594v4.462h11.554a.68.68 0 01.748.475.703.703 0 01.026.319v4.374a.463.463 0 01-.143.32c0 .319-.277.484-.707.484H133.9a.767.767 0 01-.553-.184.707.707 0 01-.201-.562V7.812z"></path><g clip-path="url(#clip0_203_9244)"><path fill="#16192E" d="M98.055 9.323L88.82 22.515l-3.646-2.553c-.6-.42-1.327-.069-1.194.578l1.945 9.456c.095.46.595.81 1.06.741l9.55-1.406c.654-.096.735-.9.135-1.32l-3.646-2.552 8.376-11.963c2.35 4.487 2.174 10.098-.932 14.533-4.434 6.333-13.163 7.873-19.496 3.438-6.334-4.434-7.873-13.163-3.438-19.496 4.434-6.334 13.163-7.873 19.496-3.438.358.25.7.514 1.026.79z"></path><path fill="#2D74FF" d="M92.779 9.923c-.094-.454-.592-.8-1.053-.733l-9.49 1.39c-.649.095-.73.89-.134 1.305l3.623 2.524-8.887 12.53c.83 1.461 1.971 2.897 3.412 3.99l9.652-13.61 3.623 2.524c.597.415 1.319.067 1.186-.572L92.78 9.923z"></path></g><defs><clipPath id="clip0_203_9244"><path fill="#fff" d="M0 0H28V28H0z" transform="translate(75 6)"></path></clipPath></defs></svg>