<svg version="1.1" id="Слой_1" xmlns="http://www.w3.org/2000/svg" xmlns:xlink="http://www.w3.org/1999/xlink" x="0" y="0" viewBox="0 0 20 20" xml:space="preserve"><style type="text/css">.st0{opacity:.6}.st1{clip-path:url(#SVGID_2_);fill:#0e0f10}.st2{opacity:.45}.st3{clip-path:url(#SVGID_4_);fill:#0e0f10}.st4{opacity:.8}.st5,.st6,.st7{clip-path:url(#SVGID_6_);fill:#0e0f10}.st6,.st7{clip-path:url(#SVGID_8_)}.st7{clip-path:url(#SVGID_10_)}</style><g class="st0"><defs><path id="SVGID_1_" d="M3.9 7.4h12.2v6.4H3.9z"/></defs><clipPath id="SVGID_2_"><use xlink:href="#SVGID_1_" overflow="visible"/></clipPath><path class="st1" d="M10 7.4l-6.1 2.8 6.1 3.6 6.1-3.6L10 7.4z"/></g><g class="st2"><defs><path id="SVGID_3_" d="M3.9.1H10v13.7H3.9z"/></defs><clipPath id="SVGID_4_"><use xlink:href="#SVGID_3_" overflow="visible"/></clipPath><path class="st3" d="M3.9 10.2l6.1 3.6V.1L3.9 10.2z"/></g><g class="st4"><defs><path id="SVGID_5_" d="M10 .1h6.1v13.7H10z"/></defs><clipPath id="SVGID_6_"><use xlink:href="#SVGID_5_" overflow="visible"/></clipPath><path class="st5" d="M10 .1v13.7l6.1-3.6L10 .1z"/></g><g class="st2"><defs><path id="SVGID_7_" d="M3.9 11.3H10v8.6H3.9z"/></defs><clipPath id="SVGID_8_"><use xlink:href="#SVGID_7_" overflow="visible"/></clipPath><path class="st6" d="M3.9 11.3l6.1 8.6v-5l-6.1-3.6z"/></g><g class="st4"><defs><path id="SVGID_9_" d="M10 11.3h6.1v8.6H10z"/></defs><clipPath id="SVGID_10_"><use xlink:href="#SVGID_9_" overflow="visible"/></clipPath><path class="st7" d="M10 15v5l6.1-8.6L10 15z"/></g></svg>