<svg width="2165" height="2001" viewBox="0 0 2165 2001" fill="none" xmlns="http://www.w3.org/2000/svg">
<path d="M1055.69 5.91762C1102.87 -18.6798 1160.46 38.3852 1135.35 85.5193C1120.79 123.935 1065.6 134.151 1037.41 104.87C1007.57 76.7574 1017.31 21.2077 1055.69 5.91762ZM548.274 60.6016C576.932 48.8007 613.209 75.0605 610.283 106.299C613.322 140.203 571.867 165.173 542.655 149.052C503.954 134.065 508.378 71.2336 548.274 60.6103V60.6016ZM1587.52 150.004C1542.73 144.593 1535.65 74.186 1578.77 59.9609C1612.21 43.6492 1642.89 74.238 1647.78 105.935C1640.77 133 1618.1 157.788 1587.52 149.961V150.004ZM663.711 276.532C711.625 246.229 779.988 291.355 772.62 347.009C770.135 403.199 695.495 435.753 653.391 397.762C612.698 367.926 618.845 299.467 663.711 276.55V276.532ZM1395.1 308.705C1416.5 253.675 1503.11 251.944 1527.44 305.623C1551.49 347.355 1521.91 399.034 1479.07 413.216C1422.32 423.814 1368.41 362.463 1395.13 308.749L1395.1 308.705ZM994.586 410.073C994.118 362.723 1037.24 327.441 1082.25 324.221C1112.09 330.203 1144.63 342.922 1157.43 373.043C1181.3 414.602 1160.11 471.796 1116.99 490.87C1097.28 501.918 1073.96 497.796 1052.49 496.489C1019.67 480.377 992.023 448.775 994.594 410.082L994.586 410.073ZM239.988 479.06C283.754 452.151 342.802 501.26 326.231 548.801C317.105 589.926 261.824 606.654 230.222 580.402C196.456 555.805 201.832 496.654 239.988 479.06ZM1860.39 478.974C1897.52 450.143 1958.79 483.216 1954.37 530.056C1956.86 572.809 1903.88 605.043 1867.02 583.034C1826.42 564.792 1822.28 502.333 1860.39 478.931V478.974ZM1206.79 564.047C1268.07 542.039 1340.85 568.377 1375.78 623.009C1421.85 689.796 1397.34 791.502 1325.84 829.822C1251.76 875.147 1143.59 836.749 1116.23 754.004C1085.17 679.944 1130.42 587.26 1206.79 564.047ZM847.27 571.381C915.183 539.346 1006.58 566.186 1039.38 635.684C1077.99 703.303 1048.14 797.459 979.122 832.368C910.023 871.615 812.534 841.892 779.122 769.26C741.59 699.06 774.889 603.71 847.27 571.381ZM487.278 694.454C492.473 650.697 533.72 622.229 575.365 619.277C620.239 624.688 656.083 659.537 660.958 704.991C658.014 749.944 623.27 793.892 575.633 793.615C523.218 798.125 477.27 745.996 487.278 694.489V694.454ZM1550.57 628.827C1604.38 597.502 1679.1 643.104 1676.71 704.922C1680.4 770.42 1597.7 816.61 1544.12 778.16C1488.46 746.169 1492.79 656.082 1550.57 628.835V628.827ZM700.958 859.641C763.893 842.325 835.85 871.987 866.715 929.831C900.482 988.056 886.707 1068.94 834.196 1111.65C766.845 1174.29 642.638 1149.14 606.793 1063.65C565.607 985.286 615.633 880.264 700.958 859.632V859.641ZM1382.87 859.312C1444.05 841.814 1515.92 865.372 1548.81 921.13C1592.3 984.879 1571.54 1079.95 1506.8 1121.04C1438.98 1168.76 1333.94 1143.7 1296.63 1069.1C1251.39 991.918 1296.91 882.853 1382.87 859.312ZM296.179 932.039C350.542 911.476 410.802 971.467 388.776 1025.36C375.33 1074.45 306.135 1092.64 270.387 1056.41C228.56 1022.42 244.049 946.783 296.187 932.039H296.179ZM1769.69 1010.26C1768.13 965.234 1801.08 925.32 1847.27 922.809C1884.5 928.706 1920.7 958.74 1917.75 999.268C1921.17 1052.8 1856.66 1089.18 1811.05 1064.03C1789.68 1053.16 1778.72 1031.24 1769.69 1010.23V1010.26ZM28.8974 958.437C61.5987 944.16 102.058 972.506 94.5943 1008.83C92.8627 1049.95 32.1268 1065.76 9.82377 1031.4C-9.89051 1007.58 1.9017 970.783 28.8974 958.437ZM2091.05 957.571C2114.08 941.173 2151.04 952.957 2160.15 979.866C2175.63 1009.25 2147.25 1049.51 2114.18 1044.54C2067.75 1048.77 2052.71 978.013 2091.05 957.571ZM878.612 1154.97C964.672 1132.59 1057.18 1204.32 1057.73 1292.97C1063.35 1382.52 972.231 1461.93 884.135 1441.24C816.04 1430.28 762.612 1364.69 764.819 1295.87C764.638 1230.07 814.3 1168.9 878.62 1154.97H878.612ZM1219.44 1154.79C1306.79 1130.38 1402.06 1203.42 1400.67 1294.09C1405.29 1381.98 1317.01 1458.71 1230.76 1441.28C1149.59 1430.78 1089.7 1341.61 1112.36 1262.84C1123.8 1210.35 1167.65 1167.67 1219.44 1154.79ZM562.3 1209.34C622.742 1199.03 679.408 1266.48 654.897 1323.85C637.018 1385.01 548.014 1401.6 508.664 1351.64C462.508 1303.67 496.967 1215.96 562.3 1209.34ZM1561.81 1212.12C1615.7 1189.55 1681.86 1236.16 1677.71 1294.66C1679.88 1359.06 1598.2 1403.46 1545.49 1365.87C1485.75 1332.11 1496.66 1232.83 1561.81 1212.12ZM1841.18 1492.33C1820.08 1452.99 1858.41 1400.85 1902.09 1408.13C1923.83 1407.77 1939.04 1424.9 1952.96 1439.3C1955.81 1462.62 1960.61 1490.39 1941.26 1508.39C1914.98 1541.65 1855.46 1532.16 1841.18 1492.37V1492.33ZM239.824 1419.1C280.646 1391.92 339.391 1432.45 330.213 1480.18C325.33 1522.39 272.205 1546.51 237.14 1522.6C199.555 1500.86 200.941 1438.96 239.824 1419.14V1419.1ZM1046.32 1507.49C1099.76 1483.91 1167.84 1530.44 1162.78 1589.3C1166.74 1654.34 1082.53 1699.39 1030.31 1660.3C972.3 1626.76 981.945 1528.09 1046.35 1507.47L1046.32 1507.49ZM672.724 1594.59C718.239 1570.64 779.33 1612 775.183 1662.99C776.568 1704.82 735.746 1740.47 694.464 1734.29C660.274 1733.55 637.98 1702.9 627.019 1673.76C627.581 1642 640.655 1606.62 672.724 1594.64V1594.59ZM1429.37 1595.37C1476.18 1566.45 1542.71 1608 1538.28 1662.47C1539.49 1719.41 1464.3 1755.88 1420.72 1718.48C1378.52 1689.16 1383.67 1618.69 1429.37 1595.37ZM1560.98 1920.66C1540.2 1889.16 1564.66 1851.2 1598.47 1844.02C1625.66 1849.55 1654.4 1870 1648.69 1901.51C1644.72 1944.16 1582.34 1957.25 1560.98 1920.66ZM516.482 1893.3C524.776 1868.33 544.863 1843.52 574.257 1850.01C617.105 1853.05 629.824 1917.63 592.317 1937.54C558.594 1960.27 519.469 1929.14 516.482 1893.3ZM1020.38 1921.95C1028.59 1885.02 1076.4 1867.05 1107.91 1886.67C1128.69 1895.61 1134.81 1918.91 1140.16 1938.71C1137.3 1949.03 1134.75 1959.35 1132.24 1969.67C1119.34 1984.96 1102.8 2000.26 1081.29 1999.7C1041.38 2004.38 1005.39 1959.27 1020.38 1921.95Z" fill="#3CC8C8"/>
</svg>
