<svg width="2000" height="2000" viewBox="0 0 2000 2000" fill="none" xmlns="http://www.w3.org/2000/svg">
<g clip-path="url(#clip0)">
<path d="M1000 260.294C694.12 260.294 444.12 508.823 444.12 816.176C444.12 877.941 454.414 938.235 473.532 997.059C486.767 1036.76 530.885 1058.82 572.061 1045.59C611.767 1032.35 633.826 988.235 620.591 947.059C604.414 901.471 597.061 852.941 598.532 804.412C604.414 597.059 772.061 426.471 979.414 416.176C1210.3 404.412 1401.47 588.235 1401.47 816.176C1401.47 1029.41 1233.83 1204.41 1023.53 1216.18C1023.53 1216.18 945.591 1220.59 907.355 1226.47C888.238 1229.41 873.532 1232.35 863.238 1233.82C858.826 1235.29 854.414 1230.88 855.885 1226.47L869.12 1161.76L941.179 829.412C950.002 788.235 923.532 747.059 882.355 738.235C841.179 729.412 800.002 755.882 791.179 797.059C791.179 797.059 617.65 1605.88 616.179 1614.71C607.355 1655.88 633.826 1697.06 675.002 1705.88C716.179 1714.71 757.355 1688.24 766.179 1647.06C767.649 1638.24 791.179 1530.88 791.179 1530.88C808.826 1448.53 876.473 1388.24 955.885 1377.94C973.532 1375 1042.65 1370.59 1042.65 1370.59C1329.41 1348.53 1555.88 1108.82 1555.88 816.176C1555.88 508.823 1305.88 260.294 1000 260.294Z" fill="black"/>
<path d="M1039.71 1539.71C989.706 1529.41 939.706 1560.29 929.412 1611.76C919.118 1661.76 950.001 1711.76 1001.47 1722.06C1051.47 1732.35 1101.47 1701.47 1111.77 1650C1122.06 1598.53 1091.18 1550 1039.71 1539.71Z" fill="#E6007A"/>
</g>
<defs>
<clipPath id="clip0">
<rect width="2000" height="2000" fill="white"/>
</clipPath>
</defs>
</svg>
