<svg width="100" height="100" viewBox="0 0 100 100" fill="none" xmlns="http://www.w3.org/2000/svg">
<g clip-path="url(#clip0_1_6)">
<path d="M16.2434 70.819C16.8469 70.2155 17.6766 69.8635 18.5567 69.8635H98.3656C99.824 69.8635 100.553 71.6236 99.5222 72.6546L83.7566 88.4202C83.1531 89.0237 82.3234 89.3757 81.4433 89.3757H1.6344C0.176015 89.3757 -0.553178 87.6156 0.47775 86.5847L16.2434 70.819Z" fill="url(#paint0_linear_1_6)"/>
<path d="M16.2434 11.9555C16.872 11.352 17.7018 11 18.5567 11H98.3656C99.824 11 100.553 12.7601 99.5222 13.791L83.7566 29.5567C83.1531 30.1602 82.3234 30.5122 81.4433 30.5122H1.6344C0.176015 30.5122 -0.553178 28.7521 0.47775 27.7211L16.2434 11.9555Z" fill="url(#paint1_linear_1_6)"/>
<path d="M83.7566 41.1987C83.1531 40.5952 82.3234 40.2432 81.4433 40.2432H1.6344C0.176015 40.2432 -0.553178 42.0033 0.47775 43.0342L16.2434 58.7999C16.8469 59.4033 17.6766 59.7554 18.5567 59.7554H98.3656C99.824 59.7554 100.553 57.9952 99.5222 56.9643L83.7566 41.1987Z" fill="url(#paint2_linear_1_6)"/>
</g>
<defs>
<linearGradient id="paint0_linear_1_6" x1="90.7415" y1="1.58207" x2="35.5074" y2="107.378" gradientUnits="userSpaceOnUse">
<stop stop-color="#00FFA3"/>
<stop offset="1" stop-color="#DC1FFF"/>
</linearGradient>
<linearGradient id="paint1_linear_1_6" x1="66.5902" y1="-11.027" x2="11.3561" y2="94.7685" gradientUnits="userSpaceOnUse">
<stop stop-color="#00FFA3"/>
<stop offset="1" stop-color="#DC1FFF"/>
</linearGradient>
<linearGradient id="paint2_linear_1_6" x1="78.589" y1="-4.76261" x2="23.3548" y2="101.033" gradientUnits="userSpaceOnUse">
<stop stop-color="#00FFA3"/>
<stop offset="1" stop-color="#DC1FFF"/>
</linearGradient>
<clipPath id="clip0_1_6">
<rect width="100" height="78.3757" fill="white" transform="translate(0 11)"/>
</clipPath>
</defs>
</svg>
