<svg width="2000" height="2000" viewBox="0 0 2000 2000" fill="none" xmlns="http://www.w3.org/2000/svg">
<g clip-path="url(#clip0)">
<g clip-path="url(#clip1)">
<path d="M1725.65 372.456L1483.72 495.758L315.463 1091.01C311.512 1060.87 309.525 1030.51 309.512 1000.11C309.672 878.821 341.505 759.679 401.858 654.484C462.21 549.29 548.989 461.693 653.598 400.37C758.206 339.048 877.015 306.128 998.255 304.871C1119.5 303.614 1238.96 334.064 1344.82 393.205L1483.3 322.624L1503.95 312.08C1377.1 219.976 1227.26 164.751 1070.99 152.509C914.722 140.266 758.114 171.483 618.473 242.709C478.832 313.934 361.596 422.396 279.723 556.105C197.85 689.814 154.527 843.565 154.544 1000.36C154.544 1022.02 155.365 1043.59 157.009 1065.08C159.311 1095.5 152.565 1125.93 137.62 1152.53C122.676 1179.13 100.2 1200.72 73.0214 1214.57L0 1251.82V1425.55L214.984 1315.93L284.605 1280.39L353.206 1245.44L1584.79 617.701L1723.19 547.205L2009.24 401.368V227.724L1725.65 372.456Z" fill="black"/>
<path d="M2009.24 575.182L423.167 1383.03L284.775 1453.69L0 1598.85V1772.41L282.82 1628.27L524.751 1504.97L1694.2 908.865C1698.15 939.204 1700.14 969.768 1700.15 1000.36C1700.07 1121.79 1668.25 1241.09 1607.84 1346.41C1547.43 1451.73 1460.53 1539.42 1355.77 1600.76C1251.01 1662.1 1132.03 1694.97 1010.65 1696.1C889.268 1697.22 769.703 1666.57 663.823 1607.18L655.322 1611.69L505.199 1688.22C632.024 1780.33 781.834 1835.57 938.077 1847.84C1094.32 1860.11 1250.91 1828.94 1390.55 1757.76C1530.2 1686.58 1647.45 1578.18 1729.36 1444.51C1811.27 1310.85 1854.64 1157.14 1854.69 1000.36C1854.69 978.509 1853.84 956.655 1852.23 935.056C1849.93 904.64 1856.67 874.223 1871.59 847.625C1886.52 821.028 1908.97 799.436 1936.13 785.562L2009.24 748.316V575.182Z" fill="black"/>
</g>
</g>
<defs>
<clipPath id="clip0">
<rect width="2000" height="2000" fill="white"/>
</clipPath>
<clipPath id="clip1">
<rect width="6800" height="1700.73" fill="white" transform="translate(0 150)"/>
</clipPath>
</defs>
</svg>
