<svg width="240" height="240" viewBox="0 0 240 240" fill="none" xmlns="http://www.w3.org/2000/svg">
<g clip-path="url(#clip0_1_2)">
<path d="M120 240C186.274 240 240 186.274 240 120C240 53.7258 186.274 0 120 0C53.7258 0 0 53.7258 0 120C0 186.274 53.7258 240 120 240Z" fill="url(#paint0_linear_1_2)"/>
<path d="M123.96 196.922C125.91 196.292 128.29 194.592 129.565 192.922C131.115 190.88 185.405 91.052 186.12 88.93C186.444 87.967 186.777 86.32 186.862 85.273C187.434 78.15 182.28 71.203 175.177 69.525C172.681 68.925 67.577 68.947 65.077 69.537C59.877 70.764 55.807 74.647 53.974 80.103C53.232 82.311 53.311 86.466 54.14 88.853C54.864 90.936 109.13 190.773 110.662 192.84C113.635 196.84 119.05 198.517 123.962 196.932L123.96 196.922ZM89.563 131.606L64.443 84.252C64.441 82.634 65.187 81.41 66.621 80.682L67.777 80.094H114.812L114.747 177.774C114.711 177.769 103.377 156.993 89.563 131.606ZM125.753 128.72V80.093H172.528L173.684 80.681C175.118 81.411 175.864 82.634 175.862 84.251C175.86 85.343 173.69 89.433 150.9 131.287L125.846 177.237C125.794 177.297 125.752 155.464 125.752 128.719L125.753 128.72Z" fill="white"/>
</g>
<defs>
<linearGradient id="paint0_linear_1_2" x1="160.08" y1="40.08" x2="100.08" y2="180" gradientUnits="userSpaceOnUse">
<stop stop-color="#37AEE2"/>
<stop offset="1" stop-color="#1E96C8"/>
</linearGradient>
<clipPath id="clip0_1_2">
<rect width="240" height="240" fill="white"/>
</clipPath>
</defs>
</svg>
