<svg width="2000" height="2000" viewBox="0 0 2000 2000" fill="none" xmlns="http://www.w3.org/2000/svg">
<g clip-path="url(#clip0)">
<path d="M1923.46 602.496C1829.71 515.934 1700.02 383.746 1594.4 289.996L1588.15 285.621C1577.75 277.27 1566.02 270.721 1553.46 266.246C1298.77 218.746 113.461 -2.81636 90.3359 -0.00385596C83.8562 0.903646 77.6625 3.25298 72.2109 6.87114L66.2734 11.5586C58.9623 18.9837 53.4094 27.9538 50.0234 37.8086L48.4609 41.8711V64.0586V67.4961C181.898 439.059 708.773 1656.25 812.523 1941.87C818.773 1961.25 830.648 1998.12 852.836 2000H857.836C869.711 2000 920.336 1933.12 920.336 1933.12C920.336 1933.12 1825.34 835.621 1916.9 718.746C1928.75 704.35 1939.21 688.864 1948.15 672.496C1950.43 659.69 1949.35 646.511 1945.03 634.244C1940.7 621.976 1933.27 611.039 1923.46 602.496ZM1152.52 730.309L1538.77 409.996L1765.34 618.746L1152.52 730.309ZM1002.52 709.371L337.523 164.371L1413.46 362.809L1002.52 709.371ZM1062.52 852.184L1743.15 742.496L965.023 1680L1062.52 852.184ZM247.211 218.746L946.898 812.496L845.648 1680.62L247.211 218.746Z" fill="#FF060A"/>
</g>
<defs>
<clipPath id="clip0">
<rect width="2000" height="2000" fill="white"/>
</clipPath>
</defs>
</svg>
