<svg xmlns="http://www.w3.org/2000/svg" width="100" height="100" fill="none"><g fill="#FF007A" clip-path="url(#a)"><path d="M41.056 22.755c-1.084-.154-1.136-.206-.62-.258.98-.154 3.251.052 4.85.413 3.716.877 7.07 3.148 10.63 7.121l.93 1.084 1.34-.207c5.728-.929 11.61-.206 16.513 2.064 1.341.62 3.457 1.858 3.715 2.167.103.103.258.774.361 1.445.361 2.425.206 4.231-.568 5.624-.412.775-.412.98-.154 1.652.206.516.825.877 1.393.877 1.238 0 2.528-1.96 3.147-4.696l.258-1.083.465.516c2.631 2.94 4.695 7.017 5.005 9.907l.103.774-.464-.671c-.774-1.187-1.497-1.96-2.477-2.632-1.754-1.186-3.612-1.547-8.514-1.805-4.438-.258-6.966-.62-9.443-1.445-4.23-1.393-6.398-3.2-11.403-9.856-2.219-2.941-3.612-4.54-5.005-5.882-3.045-2.941-6.09-4.49-10.062-5.109Z"/><path d="M79.497 29.308c.104-1.96.362-3.25.93-4.437.206-.464.412-.877.464-.877.051 0-.052.361-.207.774-.413 1.135-.464 2.735-.206 4.54.361 2.323.516 2.632 2.993 5.16 1.135 1.187 2.476 2.684 2.992 3.303l.878 1.135-.878-.825c-1.083-1.033-3.56-2.993-4.128-3.251-.36-.207-.412-.207-.67.051-.207.207-.258.516-.258 2.013-.052 2.322-.362 3.766-1.136 5.263-.412.774-.464.619-.103-.258.258-.671.31-.98.31-3.2 0-4.488-.516-5.572-3.664-7.378-.774-.465-2.115-1.135-2.89-1.497-.825-.36-1.444-.67-1.393-.67.104-.104 3.148.774 4.335 1.29 1.806.722 2.115.774 2.322.722.155-.155.258-.567.31-1.858ZM43.171 36.997c-2.167-2.993-3.56-7.637-3.25-11.094l.103-1.083.516.103c.928.155 2.528.774 3.302 1.238 2.064 1.238 2.993 2.941 3.87 7.172.258 1.239.62 2.684.774 3.148.258.774 1.238 2.58 2.064 3.715.568.826.206 1.239-1.084 1.135-1.96-.206-4.592-2.012-6.295-4.334ZM76.866 59.443c-10.217-4.128-13.829-7.689-13.829-13.726 0-.877.052-1.6.052-1.6.051 0 .413.31.877.672 2.064 1.65 4.386 2.373 10.836 3.302 3.767.567 5.934.98 7.895 1.651 6.243 2.064 10.113 6.295 11.042 12.023.258 1.65.103 4.799-.31 6.45-.36 1.29-1.393 3.663-1.65 3.715-.052 0-.156-.258-.156-.67-.103-2.168-1.186-4.232-2.992-5.832-2.168-1.857-4.954-3.25-11.765-5.985ZM69.642 61.145c-.103-.774-.361-1.754-.516-2.167l-.258-.774.464.568c.671.774 1.187 1.703 1.652 2.993.36.98.36 1.29.36 2.89 0 1.547-.05 1.909-.36 2.786-.516 1.393-1.136 2.373-2.168 3.457-1.857 1.909-4.282 2.941-7.74 3.405-.619.052-2.373.207-3.921.31-3.87.206-6.45.62-8.772 1.445-.31.103-.62.206-.67.155-.104-.104 1.495-1.032 2.785-1.652 1.806-.877 3.664-1.341 7.74-2.064 2.013-.31 4.077-.722 4.593-.928 5.108-1.6 7.636-5.573 6.81-10.424Z"/><path d="M74.338 69.453c-1.342-2.941-1.652-5.728-.93-8.36.104-.257.207-.515.31-.515.103 0 .413.155.723.361.619.413 1.909 1.135 5.211 2.941 4.18 2.27 6.553 4.025 8.205 6.037 1.444 1.755 2.322 3.767 2.734 6.244.258 1.393.104 4.747-.258 6.14-1.135 4.386-3.715 7.895-7.482 9.907-.567.31-1.032.516-1.083.516-.052 0 .155-.516.464-1.135 1.239-2.631 1.393-5.16.465-7.998-.568-1.754-1.755-3.87-4.128-7.43-2.838-4.128-3.51-5.212-4.231-6.708ZM35.896 85.243c3.818-3.2 8.514-5.47 12.848-6.192 1.858-.31 4.954-.207 6.656.257 2.735.723 5.212 2.27 6.502 4.18 1.238 1.858 1.806 3.457 2.374 7.018.206 1.393.464 2.838.516 3.147.412 1.858 1.238 3.303 2.27 4.077 1.6 1.186 4.386 1.238 7.12.206.465-.155.878-.31.878-.258.103.103-1.29 1.032-2.219 1.496-1.29.671-2.322.878-3.715.878-2.477 0-4.592-1.29-6.295-3.87-.361-.516-1.084-2.013-1.703-3.406-1.806-4.18-2.735-5.418-4.85-6.811-1.858-1.187-4.231-1.445-6.038-.568-2.373 1.135-2.992 4.18-1.341 6.037.67.774 1.91 1.394 2.941 1.548 1.91.258 3.56-1.238 3.56-3.147 0-1.239-.464-1.961-1.702-2.529-1.651-.722-3.458.104-3.406 1.703 0 .671.31 1.084.98 1.393.413.207.413.207.104.155-1.497-.31-1.858-2.167-.671-3.354 1.445-1.445 4.489-.825 5.521 1.187.413.826.464 2.477.103 3.509-.877 2.27-3.354 3.457-5.882 2.786-1.703-.464-2.425-.929-4.49-3.044-3.611-3.715-5.005-4.438-10.164-5.212l-.98-.155 1.083-1.031Z"/><path fill-rule="evenodd" d="M8.754 2.219C20.777 16.82 39.301 39.525 40.23 40.764c.774 1.032.465 2.012-.825 2.734-.723.413-2.22.826-2.942.826-.825 0-1.806-.413-2.476-1.084-.465-.464-2.477-3.405-7.018-10.474-3.457-5.418-6.398-9.907-6.45-9.959-.206-.103-.206-.103 6.089 11.146 3.973 7.069 5.263 9.597 5.263 9.907 0 .67-.206 1.032-1.032 1.96-1.393 1.548-2.012 3.303-2.477 6.966-.516 4.077-1.909 6.966-5.882 11.868-2.322 2.89-2.683 3.406-3.25 4.593-.723 1.444-.93 2.27-1.033 4.128-.103 1.96.103 3.199.67 5.056.517 1.652 1.084 2.735 2.478 4.85 1.187 1.858 1.909 3.251 1.909 3.767 0 .413.103.413 1.96 0 4.438-1.032 8.102-2.786 10.114-4.953 1.238-1.342 1.548-2.064 1.548-3.922 0-1.186-.051-1.444-.361-2.167-.516-1.135-1.496-2.064-3.612-3.509-2.786-1.909-3.973-3.457-4.283-5.52-.258-1.755.052-2.942 1.6-6.193 1.6-3.354 2.012-4.747 2.27-8.152.155-2.168.413-3.045 1.032-3.716.671-.722 1.239-.98 2.838-1.186 2.632-.362 4.334-1.032 5.676-2.322 1.187-1.084 1.703-2.168 1.755-3.767l.051-1.187-.67-.722C40.745 36.945 7.154 0 7 0c-.052 0 .774.98 1.754 2.219Zm15.841 73.374a2.13 2.13 0 0 0-.67-2.838c-.878-.567-2.22-.31-2.22.465 0 .206.104.413.414.516.464.258.516.516.154 1.083-.36.568-.36 1.084.104 1.445.722.568 1.702.258 2.218-.67ZM45.493 48.452c-1.238.361-2.425 1.703-2.786 3.044-.206.826-.103 2.322.258 2.787.567.722 1.083.929 2.528.929 2.838 0 5.264-1.239 5.521-2.735.258-1.239-.825-2.941-2.322-3.715-.773-.413-2.373-.568-3.199-.31Zm3.303 2.58c.413-.62.258-1.29-.516-1.754-1.394-.877-3.51-.155-3.51 1.186 0 .671 1.084 1.394 2.116 1.394.671 0 1.6-.413 1.91-.826Z" clip-rule="evenodd"/></g><defs><clipPath id="a"><path fill="#fff" d="M7 0h86.842v100H7z"/></clipPath></defs></svg>
