<svg xmlns="http://www.w3.org/2000/svg" viewBox="0 0 63.94 64"><circle cx="32.033" cy="31.937" r="32" fill="#F7931A"/><path d="M46.1 27.4c.6-4.3-2.6-6.5-7-8.1l1.4-5.8-3.5-.8-1.4 5.6c-.9-.2-1.9-.4-2.8-.7l1.4-5.7-3.5-.9-1.4 5.8c-.8-.2-1.5-.3-2.2-.5l-4.8-1.2-.9 3.8 2.6.6c1.4.4 1.7 1.3 1.6 2L24 28.1c.1 0 .2.1.4.1-.1 0-.2-.1-.4-.1l-2.3 9.2c-.2.4-.6 1.1-1.6.8 0 .1-2.6-.6-2.6-.6l-1.7 4 4.6 1.1c.9.2 1.7.4 2.5.6L21.4 49l3.5.9 1.4-5.8c1 .3 1.9.5 2.8.7l-1.4 5.7 3.5.9 1.5-5.8c6 1.1 10.5.7 12.4-4.7 1.5-4.4-.1-6.9-3.2-8.5 2-.3 3.7-1.8 4.2-5zm-8 11.3c-1.1 4.4-8.4 2-10.8 1.4l1.9-7.7c2.4.6 10 1.8 8.9 6.3zm1.1-11.3c-1 4-7.1 2-9.1 1.5l1.7-7c2 .4 8.4 1.3 7.4 5.5z" fill="#fff"/></svg>